<svg width="114" height="48" viewBox="0 0 114 48" fill="none" xmlns="http://www.w3.org/2000/svg">
<g clip-path="url(#clip0_43_197)">
<rect width="114" height="48" fill="white"/>
<path d="M83.296 26.864C83.5733 26.864 83.7867 26.992 83.936 27.248C84.1067 27.504 84.192 27.856 84.192 28.304C84.192 29.1573 83.9893 29.8187 83.584 30.288C82.6027 31.4187 81.5893 32.3467 80.544 33.072C79.52 33.7973 78.3467 34.16 77.024 34.16C75.936 34.16 75.1147 33.8507 74.56 33.232C74.0053 32.592 73.728 31.6747 73.728 30.48C73.728 29.8827 73.8773 28.816 74.176 27.28C74.4533 25.936 74.592 25.008 74.592 24.496C74.592 24.1547 74.4747 23.984 74.24 23.984C73.9627 23.984 73.568 24.3467 73.056 25.072C72.544 25.776 72.032 26.7147 71.52 27.888C71.008 29.0613 70.592 30.2987 70.272 31.6C69.8667 33.3067 68.864 34.16 67.264 34.16C66.624 34.16 66.1973 33.936 65.984 33.488C65.792 33.0187 65.696 32.1867 65.696 30.992C65.696 30.3093 65.7067 29.7653 65.728 29.36L65.76 26.8C65.76 23.5147 66.0907 20.0907 66.752 16.528C67.4347 12.9653 68.4267 9.97867 69.728 7.568C71.0507 5.136 72.6293 3.92 74.464 3.92C75.4453 3.92 76.2347 4.34667 76.832 5.2C77.4507 6.032 77.76 7.12 77.76 8.464C77.76 10.6187 77.1307 12.8587 75.872 15.184C74.6133 17.488 72.5653 20.1867 69.728 23.28C69.664 24.3893 69.632 25.5307 69.632 26.704C70.336 24.8907 71.1147 23.4187 71.968 22.288C72.8427 21.136 73.696 20.3147 74.528 19.824C75.3813 19.3333 76.16 19.088 76.864 19.088C78.2507 19.088 78.944 19.7813 78.944 21.168C78.944 22 78.7093 23.504 78.24 25.68C77.8347 27.536 77.632 28.7627 77.632 29.36C77.632 30.2133 77.9413 30.64 78.56 30.64C78.9867 30.64 79.488 30.384 80.064 29.872C80.6613 29.3387 81.4507 28.4853 82.432 27.312C82.688 27.0133 82.976 26.864 83.296 26.864ZM73.792 7.088C73.408 7.088 72.9813 7.64267 72.512 8.752C72.0427 9.84 71.584 11.3227 71.136 13.2C70.7093 15.056 70.3573 17.0827 70.08 19.28C71.4027 17.7227 72.4907 16.0267 73.344 14.192C74.2187 12.3573 74.656 10.6933 74.656 9.2C74.656 8.51733 74.5813 7.99467 74.432 7.632C74.2827 7.26933 74.0693 7.088 73.792 7.088ZM87.0065 34.16C85.7478 34.16 84.6705 33.8507 83.7745 33.232C82.8998 32.592 82.2385 31.76 81.7905 30.736C81.3425 29.712 81.1185 28.6133 81.1185 27.44C81.1185 25.8187 81.4172 24.3787 82.0145 23.12C82.6332 21.84 83.4652 20.848 84.5105 20.144C85.5558 19.4187 86.7292 19.056 88.0305 19.056C89.2892 19.056 90.3665 19.376 91.2625 20.016C92.1585 20.6347 92.8305 21.456 93.2785 22.48C93.7265 23.504 93.9505 24.6027 93.9505 25.776C93.9505 27.3973 93.6412 28.848 93.0225 30.128C92.4038 31.3867 91.5612 32.3787 90.4945 33.104C89.4492 33.808 88.2865 34.16 87.0065 34.16ZM87.3585 30.704C88.0838 30.704 88.6918 30.3093 89.1825 29.52C89.6945 28.7307 89.9505 27.5787 89.9505 26.064C89.9505 24.8907 89.7372 24.0053 89.3105 23.408C88.8838 22.8107 88.3718 22.512 87.7745 22.512C87.0065 22.512 86.3665 22.9067 85.8545 23.696C85.3638 24.464 85.1185 25.616 85.1185 27.152C85.1185 28.368 85.3318 29.264 85.7585 29.84C86.1852 30.416 86.7185 30.704 87.3585 30.704Z" fill="black"/>
<path d="M37.296 26.864C37.5733 26.864 37.7867 26.992 37.936 27.248C38.1067 27.504 38.192 27.856 38.192 28.304C38.192 29.1573 37.9893 29.8187 37.584 30.288C36.6027 31.4187 35.5893 32.3467 34.544 33.072C33.52 33.7973 32.3467 34.16 31.024 34.16C29.936 34.16 29.1147 33.8507 28.56 33.232C28.0053 32.592 27.728 31.6747 27.728 30.48C27.728 29.8827 27.8773 28.816 28.176 27.28C28.4533 25.936 28.592 25.008 28.592 24.496C28.592 24.1547 28.4747 23.984 28.24 23.984C27.9627 23.984 27.568 24.3467 27.056 25.072C26.544 25.776 26.032 26.7147 25.52 27.888C25.008 29.0613 24.592 30.2987 24.272 31.6C23.8667 33.3067 22.864 34.16 21.264 34.16C20.624 34.16 20.1973 33.936 19.984 33.488C19.792 33.0187 19.696 32.1867 19.696 30.992C19.696 30.3093 19.7067 29.7653 19.728 29.36L19.76 26.8C19.76 23.5147 20.0907 20.0907 20.752 16.528C21.4347 12.9653 22.4267 9.97867 23.728 7.568C25.0507 5.136 26.6293 3.92 28.464 3.92C29.4453 3.92 30.2347 4.34667 30.832 5.2C31.4507 6.032 31.76 7.12 31.76 8.464C31.76 10.6187 31.1307 12.8587 29.872 15.184C28.6133 17.488 26.5653 20.1867 23.728 23.28C23.664 24.3893 23.632 25.5307 23.632 26.704C24.336 24.8907 25.1147 23.4187 25.968 22.288C26.8427 21.136 27.696 20.3147 28.528 19.824C29.3813 19.3333 30.16 19.088 30.864 19.088C32.2507 19.088 32.944 19.7813 32.944 21.168C32.944 22 32.7093 23.504 32.24 25.68C31.8347 27.536 31.632 28.7627 31.632 29.36C31.632 30.2133 31.9413 30.64 32.56 30.64C32.9867 30.64 33.488 30.384 34.064 29.872C34.6613 29.3387 35.4507 28.4853 36.432 27.312C36.688 27.0133 36.976 26.864 37.296 26.864ZM27.792 7.088C27.408 7.088 26.9813 7.64267 26.512 8.752C26.0427 9.84 25.584 11.3227 25.136 13.2C24.7093 15.056 24.3573 17.0827 24.08 19.28C25.4027 17.7227 26.4907 16.0267 27.344 14.192C28.2187 12.3573 28.656 10.6933 28.656 9.2C28.656 8.51733 28.5813 7.99467 28.432 7.632C28.2827 7.26933 28.0693 7.088 27.792 7.088ZM49.8705 26.864C50.1478 26.864 50.3612 26.992 50.5105 27.248C50.6812 27.504 50.7665 27.856 50.7665 28.304C50.7665 29.1573 50.5638 29.8187 50.1585 30.288C49.3692 31.248 48.2492 32.1333 46.7985 32.944C45.3692 33.7547 43.8332 34.16 42.1905 34.16C39.9505 34.16 38.2118 33.552 36.9745 32.336C35.7372 31.12 35.1185 29.456 35.1185 27.344C35.1185 25.872 35.4278 24.5067 36.0465 23.248C36.6652 21.968 37.5185 20.9547 38.6065 20.208C39.7158 19.4613 40.9638 19.088 42.3505 19.088C43.5878 19.088 44.5798 19.4613 45.3265 20.208C46.0732 20.9333 46.4465 21.9253 46.4465 23.184C46.4465 24.656 45.9132 25.9253 44.8465 26.992C43.8012 28.0373 42.0198 28.8693 39.5025 29.488C40.0358 30.4693 41.0492 30.96 42.5425 30.96C43.5025 30.96 44.5905 30.6293 45.8065 29.968C47.0438 29.2853 48.1105 28.4 49.0065 27.312C49.2625 27.0133 49.5505 26.864 49.8705 26.864ZM41.8065 22.224C41.0172 22.224 40.3452 22.6827 39.7905 23.6C39.2572 24.5173 38.9905 25.6267 38.9905 26.928V26.992C40.2492 26.6933 41.2412 26.2453 41.9665 25.648C42.6918 25.0507 43.0545 24.3573 43.0545 23.568C43.0545 23.1627 42.9372 22.8427 42.7025 22.608C42.4892 22.352 42.1905 22.224 41.8065 22.224ZM59.361 19.088C59.8517 19.088 60.193 19.152 60.385 19.28C60.577 19.408 60.673 19.6213 60.673 19.92C60.673 20.432 60.3957 22.256 59.841 25.392C59.3503 28.4 59.0623 30.1813 58.977 30.736C58.1877 36.2187 57.0997 40.56 55.713 43.76C54.3263 46.96 52.481 48.56 50.177 48.56C49.089 48.56 48.2037 48.2187 47.521 47.536C46.8383 46.8747 46.497 46 46.497 44.912C46.497 43.9093 46.721 42.8853 47.169 41.84C47.6383 40.7947 48.4917 39.5893 49.729 38.224C50.9877 36.88 52.7583 35.3333 55.041 33.584L55.137 32.848C55.2863 32.0587 55.457 30.928 55.649 29.456C55.2223 30.992 54.625 32.1653 53.857 32.976C53.089 33.7653 52.2783 34.16 51.425 34.16C50.465 34.16 49.6757 33.7227 49.057 32.848C48.4597 31.952 48.161 30.8427 48.161 29.52C48.161 27.92 48.2677 26.4587 48.481 25.136C48.6943 23.792 49.0463 22.3733 49.537 20.88C49.7503 20.24 50.049 19.7813 50.433 19.504C50.817 19.2267 51.425 19.088 52.257 19.088C52.7263 19.088 53.0463 19.1627 53.217 19.312C53.409 19.4613 53.505 19.6853 53.505 19.984C53.505 20.1547 53.3877 20.7307 53.153 21.712C52.9397 22.5013 52.769 23.216 52.641 23.856C52.4703 24.7307 52.321 25.5733 52.193 26.384C52.065 27.1733 52.001 27.824 52.001 28.336C52.001 29.1467 52.225 29.552 52.673 29.552C52.993 29.552 53.3877 29.232 53.857 28.592C54.3477 27.952 54.8597 26.9813 55.393 25.68C55.9477 24.3787 56.481 22.7787 56.993 20.88C57.1637 20.24 57.4197 19.7813 57.761 19.504C58.1237 19.2267 58.657 19.088 59.361 19.088ZM50.529 45.456C51.0623 45.456 51.6597 44.8373 52.321 43.6C52.9823 42.3627 53.6437 40.304 54.305 37.424C52.6623 38.8107 51.4677 40.0693 50.721 41.2C49.9957 42.352 49.633 43.3547 49.633 44.208C49.633 44.5707 49.697 44.8693 49.825 45.104C49.9743 45.3387 50.209 45.456 50.529 45.456Z" fill="black"/>
</g>
<defs>
<clipPath id="clip0_43_197">
<rect width="114" height="48" fill="white"/>
</clipPath>
</defs>
</svg>
