<?xml version="1.0" encoding="UTF-8"?><svg id="_レイヤー_2" xmlns="http://www.w3.org/2000/svg" viewBox="0 0 801.45 666"><defs><style>.cls-1{fill:#ffb6b6;}.cls-2{fill:#f0f0f0;}.cls-3{fill:#2f2e41;}.cls-4{fill:#fff;}.cls-5{fill:#3f3d56;}.cls-6,.cls-7{fill:#8bc34a;}.cls-7,.cls-8{isolation:isolate;opacity:.1;}.cls-9{fill:#e6e6e6;}.cls-10{fill:#ccc;}</style></defs><g id="_レイヤー_1-2"><path class="cls-9" d="M132.93,244.09c-2.29,0-4.14,1.85-4.14,4.13v174.74c0,2.28,1.85,4.13,4.14,4.13H389.65c2.29,0,4.14-1.85,4.14-4.13V248.22c0-2.28-1.85-4.13-4.14-4.13H132.93Z"/><path class="cls-4" d="M138.93,250.09c-2.28,0-4.14,1.86-4.14,4.15v163.7c0,2.29,1.85,4.15,4.14,4.15h244.72c2.28,0,4.14-1.86,4.14-4.15V254.24c0-2.29-1.85-4.15-4.14-4.15H138.93Z"/><path class="cls-7" d="M363.76,285.09c-4-1.21-8.24,.74-10.39,4.33-4.44,7.44-1.77,15.35-1.29,23.15,.37,6.04-1.21,13.05-6.6,15.8-6.19,3.17-13.46-.95-20.39-1.58-7.03-.56-13.85,2.53-18.07,8.19-5.71,7.84-5.42,19.22-12.18,26.18-5.87,6.04-15.45,6.83-23.67,4.96-8.22-1.87-15.77-5.93-23.85-8.32s-17.43-2.89-24.36,1.91c-7.23,5.01-10.45,14.84-18.38,18.64-5.61,2.69-12.25,1.66-18.26,.03-6.01-1.63-12.06-3.82-18.26-3.3-6.2,.52-12.66,4.8-13.15,11l212.76-.59c.97-28.08,1.93-56.17,2.9-84.25,.22-6.31-.57-14.26-6.82-16.15Z"/><path class="cls-6" d="M153.9,385.75c-.65,0-1.18-.53-1.18-1.18s.53-1.18,1.18-1.18c54.7,0,106.87-10.95,146.89-30.84,37.53-18.65,61.45-43.94,65.62-69.38,.1-.65,.71-1.08,1.36-.98s1.08,.71,.98,1.36c0,0,0,0,0,0h0c-2.17,13.22-9.19,26.19-20.89,38.54-11.54,12.18-27.02,23.15-46.01,32.58-40.35,20.05-92.89,31.09-147.95,31.09Z"/><polygon class="cls-9" points="378.79 386.09 152.79 386.09 152.79 274.09 153.79 274.09 153.79 385.09 378.79 385.09 378.79 386.09"/><g><rect id="b93b1ef9-49b5-4354-905b-d9dddde45a10" class="cls-9" x="334.45" width="467" height="299"/><rect id="ef7485f9-8ecd-46d9-949e-abdd8aa9e360" class="cls-4" x="347.45" y="37" width="441" height="244"/><rect id="b4c2a7ec-beab-40bc-b587-23a202562f78" class="cls-6" x="334.45" width="467" height="20"/><circle id="bd6d3ebf-cb6f-4fcb-b7cd-ad5a287d3324" class="cls-4" cx="348.58" cy="9.76" r="3.68"/><circle id="efb1158e-7a7d-4adb-9063-fc7dc50c76d5" class="cls-4" cx="362.55" cy="9.76" r="3.68"/><circle id="b51f9e19-f36b-4f29-afd5-008bb0fc20dd" class="cls-4" cx="376.51" cy="9.76" r="3.68"/><rect id="b636d421-4358-445b-b124-1d058e78c733" class="cls-9" x="401.45" y="58" width="86" height="93"/><rect id="ab9c902d-64a9-4a2b-a9ec-6dc7022c80f6" class="cls-9" x="524.45" y="58" width="86" height="93"/><rect id="f4a232af-026e-479b-8040-5c62e5965d9e" class="cls-9" x="647.45" y="58" width="86" height="93"/><rect id="ada16aa4-f84d-4851-87ee-a2852d96226a" class="cls-9" x="401.45" y="168" width="86" height="93"/><rect id="ebfcbe07-3b81-4d69-a4f5-6a8318d20e8d" class="cls-9" x="524.45" y="168" width="86" height="93"/><rect id="ead16b6d-d132-49a9-a42f-1f570e523a46" class="cls-9" x="647.45" y="168" width="86" height="93"/><path id="ab8ff6e3-f37e-4992-8347-ee905fdba816-1347" class="cls-4" d="M545.43,191.94l15.75-6.23,1.83,31.13s3.3,9.52,2.2,13.18c0,0,.73,6.23-1.1,6.59s-6.96,1.1-7.32,.73-.37-1.46-.37-1.46c0,0-3.66,2.56-4.03,5.49,0,0-15.38,4.76-15.75,.37s7.69-8.06,7.69-8.06l6.23-9.52-5.13-32.22Z"/><path id="e647835b-1773-4993-9de9-376235a5ef39-1348" class="cls-4" d="M578.76,191.94l15.74-6.23,1.83,31.13s3.3,9.52,2.2,13.18c0,0,.73,6.23-1.1,6.59s-6.96,1.1-7.32,.73-.37-1.46-.37-1.46c0,0-3.66,2.56-4.03,5.49,0,0-15.38,4.76-15.75,.37s7.69-8.06,7.69-8.06l6.23-9.52-5.13-32.22Z"/><path id="ee50e840-b8e9-4cc0-9b2e-64e12816c6e5-1349" class="cls-5" d="M580.3,71.74s-3.35,9.37,.53,13.59l-3.24,11.13s11.51,34.52,8.22,39.34c0,0-12.27,6.14-36.82-2.19l9.97-38.68-1.42-16.33,1.97-7.67,4.38-.43s-2.63,9.86,2.19,11.4,9.53-11.15,9.53-11.15l4.69,1Z"/><path id="b668efb4-5504-4326-941b-9be143c4d030-1350" class="cls-4" d="M425.46,132.21l4.23,1.73,20.19-26.54,6.35,31.16,4.23-.77c2.71-26.86,4.93-54.26,2.21-67.21l-15.67-.67-7.12,22.7-3.46,15.39-10.96,24.23Z"/><path id="b699d661-049e-451c-8a7e-64343ac1c335-1351" class="cls-4" d="M682.25,70s-5.77,8.03-5.49,11.27,3.94,56.05,3.94,56.05l8.59,.42-2.54-38.03,2.11-10.28,5.21,47.88,10.56,.28-9.44-62.11-1.83-5.49h-11.12Z"/><path id="a4f25674-ecb7-42aa-ae9a-d508200b11eb-1352" class="cls-5" d="M714.89,199.69c-1.53-1.84-4.17-2.83-6.7-3.37,.07-.23-7.7-1.84-7.83-1.5l-2.93-2.33-9,4.67-5.06-3.44-2.35,.83c.1-.41-7.29,.87-7.29,.87-1.41,.05-3.21,.14-5.23,.29-7.07,.54-7.61,18.85-7.61,18.85,3.25-1.33,6.72-2.06,10.23-2.14l1.91,21.89c9.82-.84,20.13,.14,30.81,2.54l5.01-17.21,11.66-4.54s-1.99-11.05-5.62-15.4Z"/><path id="b6d7fb25-d94e-4ba0-9382-3f72a4c565e4-1353" class="cls-4" d="M464.62,189.26c-1.26-1.52-3.43-2.34-5.52-2.78,.06-.19-6.34-1.51-6.45-1.24l-2.41-1.92-7.41,3.85-4.17-2.84-1.94,.69c.08-.34-6.01,.71-6.01,.71-1.16,.04-2.65,.11-4.31,.24-5.82,.45-6.27,15.53-6.27,15.53,2.68-1.1,5.54-1.69,8.43-1.77l1.57,44.15c8.09-.69,16.58,.11,25.38,2.09l4.13-40.3,9.61-3.74s-1.64-9.11-4.63-12.69Z"/></g><g><path class="cls-2" d="M10.43,561.12c-15.4-34.06-14.83-77.24,9.07-105.98,8,39.86,29.83,75.6,61.64,100.91,12.3,9.72,27,19.24,30.36,34.55,2.09,9.53-.87,19.61-6,27.91-5.13,8.3-12.27,15.13-19.33,21.86l-.79,2.3c-30.73-21.28-59.55-47.48-74.95-81.55Z"/><path class="cls-4" d="M20.16,455.55c-5.5,30.12-1.41,62.19,11.95,89.78,2.89,5.97,6.34,11.77,10.96,16.56,4.54,4.64,10.24,7.98,16.51,9.68,5.81,1.7,11.95,2.76,17.25,5.84,5.59,3.25,9.05,8.7,10.4,14.94,1.65,7.64,.46,15.43-.97,23-1.59,8.4-3.37,17.11-1.07,25.56,.28,1.02-1.33,1.4-1.6,.37-4.01-14.7,3.78-29.2,2.69-43.98-.51-6.9-3.1-13.68-9.01-17.68-5.17-3.49-11.5-4.6-17.4-6.26-6.2-1.75-11.76-4.43-16.49-8.86-4.84-4.54-8.53-10.22-11.56-16.08-6.77-13.35-11.4-27.69-13.72-42.48-2.74-16.87-2.58-34.08,.49-50.89,.19-1.04,1.76-.55,1.57,.49h0Z"/><path class="cls-4" d="M27.3,536.59c-10.3,3.3-21.48-1.35-26.41-10.98-.48-.95,.97-1.73,1.45-.79,4.57,8.98,15.01,13.3,24.59,10.16,1.01-.33,1.38,1.28,.37,1.6h0Z"/><path class="cls-4" d="M56.52,571.1c4.99-9.48,6.21-20.49,3.44-30.83-.28-1.02,1.33-1.4,1.6-.37,2.86,10.77,1.56,22.22-3.65,32.08-.5,.94-1.89,.06-1.4-.87Z"/><path class="cls-4" d="M17.48,489.62c4.18-.44,7.86-2.95,9.8-6.69,.49-.94,1.88-.07,1.4,.87-2.15,4.12-6.21,6.9-10.82,7.42-.44,.09-.87-.18-.99-.61-.1-.44,.17-.88,.61-.99Z"/><path class="cls-2" d="M146.06,455.47c-.29,.6-.57,1.2-.85,1.81-3.8,8.06-6.95,16.43-9.4,25-.2,.66-.39,1.33-.57,2-5.68,20.72-7.47,42.31-5.27,63.69,.88,8.5,2.41,16.93,4.57,25.2,2.99,11.42,7.13,23.57,6.2,34.98-.08,1.19-.24,2.38-.47,3.55l-52.01,31.77c-.15,.01-.3,.04-.46,.05l-2.02,1.36c-.14-.42-.28-.86-.42-1.28-.08-.24-.15-.49-.24-.73-.05-.16-.1-.33-.16-.47-.02-.05-.03-.11-.04-.15-.06-.15-.09-.29-.14-.42-.78-2.44-1.53-4.9-2.28-7.36t0-.03c-5.62-18.78-9.72-38.19-10.74-57.6-.03-.58-.07-1.18-.08-1.78-.41-8.75-.11-17.53,.91-26.23,.57-4.76,1.38-9.5,2.44-14.18,2.74-12.09,7.36-23.68,13.7-34.34,12.64-21.24,31.93-38.21,55.54-44.37,.6-.16,1.2-.31,1.81-.45Z"/><path class="cls-4" d="M146.35,456.2c-22.52,20.74-38.57,48.8-44.51,78.88-1.28,6.5-2.02,13.21-1.22,19.83,.83,6.44,3.37,12.54,7.35,17.67,3.62,4.85,7.88,9.4,10.26,15.05,2.5,5.96,1.99,12.39-.69,18.19-3.28,7.1-8.92,12.59-14.62,17.78-6.33,5.75-12.99,11.63-16.24,19.76-.39,.99-1.9,.32-1.51-.67,5.65-14.15,20.6-21.04,28.63-33.49,3.75-5.81,5.76-12.79,3.45-19.54-2.02-5.9-6.42-10.6-10.13-15.48-3.89-5.13-6.72-10.61-7.83-17.01-1.13-6.54-.66-13.29,.45-19.8,2.63-14.74,7.56-28.97,14.62-42.18,7.97-15.12,18.46-28.76,31.03-40.34,.78-.72,1.74,.62,.96,1.34h0Z"/><path class="cls-4" d="M103.25,525.21c-10.22-3.57-16.34-14.01-14.47-24.67,.19-1.04,1.82-.8,1.63,.24-1.76,9.92,3.97,19.65,13.51,22.92,1,.34,.33,1.85-.67,1.51h0Z"/><path class="cls-4" d="M105.81,570.36c9.69-4.57,17.3-12.62,21.31-22.54,.4-.98,1.9-.32,1.51,.67-4.2,10.32-12.13,18.68-22.23,23.41-.96,.45-1.55-1.09-.59-1.54h0Z"/><path class="cls-4" d="M123.69,481.79c3.6,2.17,8.06,2.38,11.85,.56,.96-.46,1.54,1.08,.59,1.54-4.2,1.99-9.11,1.77-13.11-.59-.4-.19-.59-.67-.42-1.09,.19-.41,.67-.6,1.09-.42h0Z"/><g id="e36d5192-81ed-4486-9dc7-3aabf5bf620f"><path id="eec6541e-7182-40d2-8839-37d6db66ade2-985" class="cls-5" d="M456.55,448.52l-.22-.45c-.07-.14-6.69-13.99-3-27.64,3.69-13.65,16.39-22.27,16.52-22.36l.42-.28,.22,.45c.07,.14,6.69,13.99,3,27.64s-16.4,22.27-16.52,22.36l-.42,.28Zm16.41-24.18c2.48-11.64-14.79-16.29-18.41-4.95-.13,.42-.26,.84-.37,1.26-3.23,11.92,1.62,24.03,2.72,26.55,2.22-1.62,12.51-9.63,15.74-21.55h0c.12-.43,.22-.87,.32-1.31Z"/><path id="a9014b65-d248-4059-8312-b45b24de232b-986" class="cls-6" d="M439.47,425.77c3.69,13.65,16.35,22.11,16.35,22.11,0,0,6.66-13.68,2.97-27.33-3.69-13.65-16.35-22.11-16.35-22.11,0,0-6.66,13.68-2.97,27.33Z"/><path id="ab25dc1f-49f0-4119-9b11-8880659579f8-987" class="cls-5" d="M456.75,448.33l-.5-.03c-.15,0-15.47-.95-25.61-10.82s-11.49-25.16-11.5-25.31l-.04-.5,.5,.03c.15,0,15.47,.95,25.61,10.82,10.13,9.86,11.49,25.16,11.5,25.31l.04,.5Zm-25.5-11.47c8.85,8.62,21.79,10.27,24.52,10.53-.33-2.73-2.33-15.61-11.18-24.23h0c-.32-.31-.64-.61-.96-.9-8.89-7.91-21.38,4.88-13.32,13.63,.31,.33,.62,.65,.94,.97h0Z"/><path id="eb5ac145-5caa-4eb9-a8bf-cd04614f452d-988" class="cls-5" d="M467.64,422.83c-10.13,9.86-11.37,25.03-11.37,25.03,0,0,15.19-.83,25.33-10.69s11.37-25.03,11.37-25.03c0,0-15.19,.83-25.33,10.7Z"/><circle id="fe2e9284-0c2b-4a15-b6a0-6b994e8a2442" class="cls-6" cx="456.06" cy="389.58" r="6.61"/><path id="a86ae965-8410-4628-8d67-c8bdb55cc5ff-989" class="cls-9" d="M444.07,445h25.21c6.29,0,11.39,5.1,11.39,11.39h0c0,6.29-3.56,29.1-9.85,29.1l-30.9,.81c-6.29,0-7.23-23.62-7.23-29.91h0c0-6.29,5.1-11.39,11.39-11.39Z"/></g><path id="a084342b-ec68-4bf1-835e-e1a712a99507-990" class="cls-1" d="M390.26,445c-.38,.24-.74,.52-1.07,.82l-39.08-9.96-2.67-9.43-14.76,2.16,3.1,17.15c.51,2.85,2.84,5.01,5.72,5.31l45.63,4.81c1.96,4.12,6.78,5.95,10.95,4.24,4.37-1.8,6.48-7.02,4.57-11.34s-7.14-6.33-11.48-4.27c-.32,.15-.63,.32-.93,.51h0Z"/><path id="b5ab2668-a5cc-41bf-8089-de1c0694ee81-991" class="cls-9" d="M330.06,436.97l10.07,8.69,14.09,12.14,6.22-31.83,.65-3.31,.51-2.63-14.27-24.86-11.9,.68-.81,.05-.02,.18-.19,1.67-2.44,21.94-.06,.53-1.85,16.75Z"/><path id="a48a89e5-5415-44e6-8741-1c2f93951686-992" class="cls-1" d="M395.45,654h9.85l4.69-38h-14.54v38Z"/><path id="b4ab5075-ce23-46e9-939e-e287d4f4a486-993" class="cls-1" d="M291.45,655h9.85l4.69-38h-14.54v38Z"/><path id="b77a2f94-428a-4b99-b464-6e051b4fe742-994" class="cls-3" d="M284.05,639.01l26.84,4.07,39.04-132.14,41.47,132.95,30.09-4.07-39.04-154.52v-12.2l-5.29-18.3,.55-4.95,3.85-34.64,1.67-15.02,.11-.97c.19-1.69-.94-3.24-2.6-3.59h0l-12.52-2.63h-20.47l-12.08,3.33-.83,.23-.37,.11,.19,1.56,2.83,23.73,.15,1.3,2.73,22.88,.6,5.02c-23.58,17.08-24.4,34.16-24.4,34.16l-32.53,153.7Z"/><circle id="b29dce1d-f666-44df-985a-547bf779e1a4" class="cls-1" cx="360.21" cy="362.26" r="19.97"/><rect id="a7f6a896-dcf1-4596-b70f-da8ad38f22ed" class="cls-6" x="355.77" y="431.56" width="5.69" height="39.85" transform="translate(-135.57 748.53) rotate(-82.55)"/><path id="bd729490-aac7-4879-a04d-c9e945275ef2-995" class="cls-1" d="M431.74,453c-.38,.24-.74,.52-1.07,.82l-39.08-9.96-2.67-9.43-14.76,2.16,3.1,17.15c.51,2.85,2.84,5.01,5.72,5.31l45.63,4.81c1.96,4.12,6.78,5.95,10.95,4.24s6.48-7.02,4.57-11.34-7.14-6.33-11.48-4.27c-.32,.15-.63,.32-.93,.51h0Z"/><path id="b6be5ba1-6394-41ea-b0bb-2e259093a5f0-996" class="cls-9" d="M371.63,400.25l6.91-5.29c1.87-.71,4.43,1.31,4.88,3.25l9.76,39.85-20.33,14.64-2.85-4.47,1.63-47.98Z"/><path id="b6feaf63-857f-49b2-8f08-fe1d6a64856c-997" class="cls-3" d="M375.51,345.73c3.74-.46,7.83-.13,10.75,2.25s3.85,7.34,1.09,9.9c-2.44,2.27-6.26,1.73-9.53,2.38-5.8,1.3-9.95,6.39-10.07,12.33,.05,8.27,7.99,14.54,9.42,22.69,.98,5.56-1.37,11.42-5.43,15.35s-9.63,6.05-15.25,6.63c-5.62,.57-11.3-.3-16.76-1.75-5.48-1.45-10.88-3.51-15.48-6.82-4.6-3.32-8.37-7.99-9.85-13.47s-.42-11.75,3.39-15.96c4.36-4.81,11.61-6.47,15.38-11.76,4.23-5.93,2.66-14.37,6.08-20.79,2.28-4.29,6.61-7.22,11.22-8.76s9.53-1.85,14.39-1.99c2.55-.08,5.18-.1,7.56,.83s4.47,3.05,4.59,5.6c.12,2.55-1.51,3.34-1.51,3.34Z"/><path class="cls-5" d="M152.86,664H70.04c-3.08,0-5.58-2.51-5.59-5.59v-51.7c.01-10.32,8.37-18.69,18.68-18.7h69.73c3.08,0,5.58,2.51,5.59,5.59v64.81c0,3.09-2.5,5.59-5.59,5.59Zm-70.31-74c-9.44,.01-17.09,7.68-17.11,17.14v51.88c0,2.2,1.78,3.98,3.98,3.98h83.05c2.19,0,3.97-1.78,3.98-3.98v-65.03c0-2.2-1.78-3.98-3.98-3.98H82.56Z"/><path class="cls-6" d="M85.71,592c-9.53,.01-17.25,7.73-17.26,17.26v47.66c0,2.25,1.83,4.08,4.08,4.08h77.84c2.25,0,4.08-1.83,4.08-4.08v-60.84c0-2.25-1.83-4.08-4.08-4.08H85.71Z"/><path class="cls-5" d="M117.36,607h-11.83c-1.15,0-2.09-.92-2.09-2.05v-18.95h16v18.95c0,1.13-.93,2.05-2.09,2.05Z"/><path class="cls-5" d="M578.31,570.44l3.56-9.48,.13-.07,28.66-16.38c.31-.18,.64-.3,.99-.38,1.84-.39,3.65,.79,4.04,2.64,.31,1.46-.37,2.95-1.67,3.68l-35.7,19.99Z"/><path class="cls-5" d="M472.92,570.44l-35.7-19.99c-1.64-.92-2.23-3-1.31-4.64,.73-1.3,2.22-1.98,3.68-1.67,.35,.07,.68,.2,.99,.38l28.78,16.45,3.55,9.48Z"/><path id="a917e09e-7501-48ae-a084-2a300f5c05f4-998" class="cls-5" d="M581.66,572h-112.1l-9.43-44h130.95l-9.43,44Z"/><path class="cls-5" d="M584.18,568h-117.14l-7.99-36.39c-.68-3.08,.4-6.38,2.97-8.2,1.32-.94,2.87-1.42,4.44-1.42h118.31c4.23,0,7.65,3.43,7.65,7.65,0,.55-.06,1.1-.18,1.64l-8.06,36.71Zm-116.13-2h115.14l7.78-35.44c.4-1.83,.06-3.8-1.11-5.26s-2.99-2.31-4.78-2.31h-118.73c-1.88,0-3.72,.76-4.89,2.22s-1.6,3.41-1.22,5.15l7.82,35.63Z"/><path id="be148f51-17c4-4ec3-8125-b7d3e9443af6-999" class="cls-8" d="M581.66,572h-112.1l-9.43-44h130.95l-9.43,44Z"/><path class="cls-5" d="M579.88,665h-108.86c-3.07,0-5.57-2.5-5.57-5.59v-93.41h120v93.41c0,3.09-2.5,5.59-5.57,5.59Zm-112.43-97v91.07c0,2.17,1.77,3.93,3.95,3.93h109.09c2.18,0,3.95-1.76,3.95-3.93v-91.07h-117Z"/><path class="cls-5" d="M470.45,570v86.54c0,2.46,2,4.46,4.46,4.46h102.08c2.46,0,4.46-2,4.46-4.46v-86.54h-111Z"/><path class="cls-6" d="M591.45,529h-131v-.43c0-3.07,2.35-5.56,5.24-5.57h120.51c2.9,0,5.24,2.49,5.24,5.57v.43Z"/><path class="cls-5" d="M180.51,607c-8.32,0-15.05,6.79-15.06,15.15v34.77c0,2.25,1.82,4.07,4.05,4.08h58.9c2.24,0,4.05-1.83,4.05-4.08v-45.85c0-2.25-1.82-4.07-4.05-4.08h-47.88Z"/><path class="cls-5" d="M241.71,603h-59.56c-3.15,0-5.7-2.58-5.7-5.76v-50.49c0-3.18,2.55-5.75,5.7-5.76h53.15c9.47,.01,17.14,7.76,17.15,17.32v33.84c0,5.99-4.81,10.84-10.74,10.84Zm-60.17-60c-2.26,0-4.09,1.82-4.09,4.07v49.86c0,2.25,1.83,4.06,4.09,4.07h59.76c5.05,0,9.14-4.07,9.15-9.09v-33.42c0-8.55-6.98-15.48-15.58-15.49h-53.33Z"/><path class="cls-5" d="M230.75,665h-64.6c-3.15,0-5.7-2.58-5.7-5.76v-39.36c.01-9.32,7.49-16.87,16.72-16.88h53.58c3.15,0,5.7,2.58,5.7,5.76v50.49c0,3.18-2.55,5.75-5.7,5.76Zm-53.15-60c-8.36,0-15.14,6.75-15.15,15.06v38.88c0,2.25,1.83,4.06,4.09,4.07h64.82c2.26,0,4.09-1.82,4.09-4.07v-49.86c0-2.25-1.83-4.07-4.09-4.07h-53.76Z"/><path class="cls-9" d="M184.5,545c-2.24,0-4.05,1.83-4.05,4.08v45.85c0,2.25,1.82,4.07,4.05,4.08h53.86c5.02,0,9.08-4.09,9.09-9.14v-29.28c0-8.6-6.94-15.57-15.49-15.58h-47.45Z"/><path class="cls-5" d="M218.49,558h-8.08c-1.08,0-1.96-.93-1.96-2.09v-14.91h12v14.91c0,1.15-.88,2.08-1.96,2.09Z"/><path class="cls-3" d="M395.52,646.95l11.93-.71v5.11l11.24,7.76c1.09,.75,1.71,2.09,1.41,3.38-.35,1.53-1.67,2.51-3.12,2.51h-14.2l-2.45-5.05-.96,5.05h-5.35l1.5-18.05Z"/><path class="cls-3" d="M291.52,646.95l11.93-.71v5.11l11.24,7.76c1.09,.75,1.71,2.09,1.41,3.38-.35,1.53-1.67,2.51-3.12,2.51h-14.2l-2.45-5.05-.96,5.05h-5.35l1.5-18.05Z"/><path class="cls-5" d="M89.4,649h-22.1c-.45-.29-.81-.66-.81-1.1s.36-.81,.81-.9h22.1c.45,.08,.81,.45,.81,.9s-.36,.81-.81,1.1Z"/><path class="cls-6" d="M186.99,647h-22.1c-.45,.08-.81-.28-.81-.73s.36-.81,.81-1.27h22.1c.45,.46,.81,.82,.81,1.27s-.36,.81-.81,.73Z"/><path class="cls-6" d="M492.77,641h-22.1c-.45-.04-.81-.4-.81-.85s.36-.81,.81-1.15h22.1c.45,.33,.81,.7,.81,1.15s-.36,.81-.81,.85Z"/><path class="cls-6" d="M501.71,633h-22.1c-.45-.17-.81-.54-.81-.99s.36-.81,.81-1.01h22.1c.45,.2,.81,.57,.81,1.01s-.36,.81-.81,.99Z"/><path class="cls-6" d="M460.24,475h-22.1c-.45,.06-.81-.31-.81-.76s.36-.81,.81-1.24h22.1c.45,.43,.81,.8,.81,1.24s-.36,.81-.81,.76Z"/><path class="cls-5" d="M202.44,589h-22.1c-.45-.47-.81-.84-.81-1.28s.36-.81,.81-.72h22.1c.45-.1,.81,.27,.81,.72s-.36,.81-.81,1.28Z"/><path class="cls-5" d="M202.44,582h-22.1c-.45,.02-.81-.34-.81-.79s.36-.81,.81-1.21h22.1c.45,.4,.81,.76,.81,1.21s-.36,.81-.81,.79Z"/><path class="cls-6" d="M529.49,542h-8.08c-1.08,0-1.96-.93-1.96-2.09v-14.91h12v14.91c0,1.15-.88,2.08-1.96,2.09Z"/><rect id="af895076-55e2-4ce3-b817-4381b6fe19d2" class="cls-10" x="4.45" y="664" width="680" height="2"/><path class="cls-6" d="M203.49,619h-8.08c-1.08,0-1.96-.93-1.96-2.09v-14.91h12v14.91c0,1.15-.88,2.08-1.96,2.09Z"/></g></g></svg>